<svg width="32" height="32" viewBox="0 0 32 32" fill="none" xmlns="http://www.w3.org/2000/svg">
<path d="M24 5.66667H8C4.776 5.66667 3 7.44267 3 10.6667V21.3333C3 24.5573 4.776 26.3333 8 26.3333H24C27.224 26.3333 29 24.5573 29 21.3333V10.6667C29 7.44267 27.224 5.66667 24 5.66667ZM27 21.3333C27 23.436 26.1027 24.3333 24 24.3333H8C5.89733 24.3333 5 23.436 5 21.3333V14.3333H27V21.3333ZM27 12.3333H5V10.6667C5 8.564 5.89733 7.66667 8 7.66667H24C26.1027 7.66667 27 8.564 27 10.6667V12.3333ZM8.33333 20C8.33333 19.448 8.78133 19 9.33333 19H13.3333C13.8853 19 14.3333 19.448 14.3333 20C14.3333 20.552 13.8853 21 13.3333 21H9.33333C8.78133 21 8.33333 20.552 8.33333 20Z" fill="#D1DADD"/>
</svg>
