<svg width="148" height="64" viewBox="0 0 148 64" fill="none" xmlns="http://www.w3.org/2000/svg">
<rect x="0.5" y="0.5" width="147" height="63" rx="15.5" stroke="#D1DADD"/>
<path d="M56.7262 50.8112V48.2961C56.7262 47.3318 56.1498 46.7031 55.1619 46.7031C54.668 46.7031 54.1329 46.8708 53.7624 47.4158C53.4744 46.9546 53.0628 46.7031 52.4454 46.7031C52.0337 46.7031 51.6223 46.8288 51.2928 47.2899V46.787H50.4285V50.8112H51.2928V48.5894C51.2928 47.8769 51.6633 47.5414 52.2397 47.5414C52.8157 47.5414 53.1041 47.9188 53.1041 48.5894V50.8112H53.9685V48.5894C53.9685 47.8769 54.3798 47.5414 54.915 47.5414C55.4913 47.5414 55.7793 47.9188 55.7793 48.5894V50.8112H56.7262ZM69.527 46.787H68.1277V45.5714H67.2633V46.787H66.4813V47.5832H67.2632V49.4279C67.2632 50.3502 67.6337 50.895 68.6216 50.895C68.9921 50.895 69.4035 50.7693 69.6918 50.6017L69.4447 49.847C69.1978 50.0147 68.9098 50.0567 68.7039 50.0567C68.2923 50.0567 68.1277 49.8052 68.1277 49.3859V47.5832H69.527V46.787ZM76.8538 46.7029C76.3599 46.7029 76.0307 46.9546 75.8248 47.2899V46.787H74.9604V50.8112H75.8248V48.5476C75.8248 47.8769 76.1128 47.4996 76.6479 47.4996C76.8125 47.4996 77.0184 47.5416 77.183 47.5834L77.43 46.7452C77.2653 46.7031 77.0184 46.7031 76.8538 46.7031M65.7815 47.1225C65.3698 46.829 64.7936 46.7033 64.1762 46.7033C63.1884 46.7033 62.5299 47.2063 62.5299 48.0028C62.5299 48.6736 63.0238 49.0507 63.8882 49.1766L64.2997 49.2186C64.7525 49.3022 64.9995 49.4281 64.9995 49.6377C64.9995 49.931 64.6702 50.1407 64.0938 50.1407C63.5175 50.1407 63.0648 49.931 62.7767 49.7216L62.3651 50.3922C62.8179 50.7275 63.4353 50.8952 64.0526 50.8952C65.2052 50.8952 65.8638 50.3504 65.8638 49.5957C65.8638 48.8831 65.3287 48.5058 64.5054 48.3801L64.0938 48.3381C63.7233 48.2961 63.4353 48.2124 63.4353 47.961C63.4353 47.6675 63.7233 47.4998 64.1762 47.4998C64.6702 47.4998 65.1641 47.7093 65.411 47.8351L65.7815 47.1225ZM88.7493 46.7033C88.2553 46.7033 87.926 46.9548 87.7202 47.2901V46.7872H86.8558V50.8113H87.7202V48.5478C87.7202 47.8771 88.0083 47.4998 88.5433 47.4998C88.7081 47.4998 88.914 47.5418 89.0786 47.5836L89.3255 46.7453C89.1609 46.7033 88.914 46.7033 88.7493 46.7033ZM77.7182 48.7993C77.7182 50.0149 78.5413 50.8952 79.8174 50.8952C80.3936 50.8952 80.8052 50.7695 81.2167 50.4342L80.8052 49.7216C80.4759 49.973 80.1467 50.0987 79.7762 50.0987C79.0764 50.0987 78.5825 49.5957 78.5825 48.7993C78.5825 48.0448 79.0764 47.5416 79.7762 47.4998C80.1467 47.4998 80.4759 47.6255 80.8052 47.8771L81.2167 47.1645C80.8052 46.829 80.3936 46.7033 79.8174 46.7033C78.5413 46.7033 77.7182 47.5836 77.7182 48.7993ZM85.7034 48.7993V46.7872H84.839V47.2901C84.5508 46.913 84.1393 46.7033 83.6042 46.7033C82.4928 46.7033 81.6285 47.5836 81.6285 48.7993C81.6285 50.0149 82.4928 50.8952 83.6042 50.8952C84.1803 50.8952 84.5921 50.6857 84.839 50.3084V50.8113H85.7034V48.7993ZM82.5339 48.7993C82.5339 48.0866 82.9867 47.4998 83.7275 47.4998C84.4273 47.4998 84.9213 48.0448 84.9213 48.7993C84.9213 49.5119 84.4273 50.0987 83.7275 50.0987C82.9867 50.0567 82.5339 49.5119 82.5339 48.7993ZM72.2027 46.7033C71.0501 46.7033 70.2268 47.5416 70.2268 48.7993C70.2268 50.0569 71.0499 50.8952 72.2437 50.8952C72.8199 50.8952 73.3963 50.7275 73.8491 50.3504L73.4373 49.7216C73.1081 49.973 72.6965 50.1407 72.285 50.1407C71.7498 50.1407 71.2147 49.8892 71.0912 49.1764H74.0137V48.8413C74.055 47.5416 73.3142 46.7033 72.2027 46.7033ZM72.2025 47.4578C72.7374 47.4578 73.1081 47.7933 73.1902 48.4221H71.1322C71.2145 47.8771 71.585 47.4578 72.2025 47.4578ZM93.6472 48.7993V45.1942H92.7828V47.2901C92.4947 46.913 92.0831 46.7033 91.548 46.7033C90.4367 46.7033 89.5723 47.5836 89.5723 48.7993C89.5723 50.0149 90.4367 50.8952 91.548 50.8952C92.1243 50.8952 92.5359 50.6857 92.7828 50.3084V50.8113H93.6472V48.7993ZM90.4779 48.7993C90.4779 48.0866 90.9305 47.4998 91.6715 47.4998C92.3713 47.4998 92.8652 48.0448 92.8652 48.7993C92.8652 49.5119 92.3713 50.0987 91.6715 50.0987C90.9305 50.0567 90.4779 49.5119 90.4779 48.7993ZM61.5828 48.7993V46.7872H60.7185V47.2901C60.4303 46.913 60.0187 46.7033 59.4836 46.7033C58.3723 46.7033 57.5079 47.5836 57.5079 48.7993C57.5079 50.0149 58.3723 50.8952 59.4836 50.8952C60.06 50.8952 60.4715 50.6857 60.7185 50.3084V50.8113H61.5828V48.7993ZM58.3723 48.7993C58.3723 48.0866 58.8251 47.4998 59.5659 47.4998C60.2657 47.4998 60.7597 48.0448 60.7597 48.7993C60.7597 49.5119 60.2657 50.0987 59.5659 50.0987C58.8251 50.0567 58.3723 49.5119 58.3723 48.7993Z" fill="black"/>
<path d="M65.4934 16.2277H78.459V39.954H65.4934V16.2277Z" fill="#FF5F00"/>
<path d="M66.3167 28.091C66.3167 23.2703 68.5393 18.9945 71.9556 16.2277C69.4449 14.2156 66.2756 13 62.8181 13C54.6268 13 48 19.7489 48 28.091C48 36.433 54.6268 43.1819 62.8179 43.1819C66.2754 43.1819 69.4447 41.9663 71.9556 39.954C68.5393 37.2293 66.3167 32.9116 66.3167 28.091Z" fill="#EB001B"/>
<path d="M95.9524 28.091C95.9524 36.4328 89.3256 43.1819 81.1344 43.1819C77.6769 43.1819 74.5076 41.9663 71.9968 39.954C75.4543 37.1875 77.6359 32.9116 77.6359 28.091C77.6359 23.2703 75.4131 18.9945 71.9968 16.2277C74.5075 14.2156 77.6769 13 81.1344 13C89.3256 13 95.9524 19.7909 95.9524 28.091Z" fill="#F79E1B"/>
</svg>
