<svg width="148" height="64" viewBox="0 0 148 64" fill="none" xmlns="http://www.w3.org/2000/svg">
<rect x="0.5" y="0.5" width="147" height="63" rx="15.5" fill="#009ADB" fill-opacity="0.05"/>
<rect x="0.5" y="0.5" width="147" height="63" rx="15.5" stroke="#009ADB"/>
<path d="M75.271 27.6418C75.2288 30.9718 78.2377 32.8299 80.5042 33.9347C82.8329 35.0682 83.6151 35.7952 83.6058 36.809C83.5885 38.3603 81.7483 39.045 80.0264 39.0716C77.0222 39.1182 75.2753 38.2602 73.8867 37.6114L72.8044 42.6771C74.1977 43.3193 76.7776 43.8794 79.4529 43.904C85.7328 43.904 89.8412 40.8031 89.8635 35.9953C89.888 29.8935 81.4263 29.5558 81.4841 26.8284C81.5041 26.0014 82.2929 25.1189 84.0215 24.8945C84.8771 24.7812 87.2391 24.6945 89.9169 25.928L90.968 21.0268C89.5279 20.5023 87.677 20 85.3726 20C79.4618 20 75.3045 23.1431 75.271 27.6418ZM101.067 20.4222C99.9205 20.4222 98.9542 21.0913 98.5229 22.1181L89.5524 43.544H95.8277L97.0764 40.0918H104.745L105.469 43.544H111L106.174 20.4222H101.067ZM101.945 26.6682L103.756 35.3507H98.7964L101.945 26.6682ZM67.6626 20.4225L62.7162 43.5437H68.696L73.6401 20.4219L67.6626 20.4225ZM58.8164 20.4225L52.5923 36.1598L50.0746 22.7785C49.7792 21.2847 48.6125 20.4222 47.3169 20.4222H37.1425L37 21.0936C39.0888 21.547 41.462 22.2783 42.8998 23.0607C43.7797 23.5387 44.0306 23.9565 44.3196 25.0923L49.0883 43.544H55.4075L65.0957 20.4222L58.8164 20.4225Z" fill="url(#paint0_linear_46_2513)"/>
<defs>
<linearGradient id="paint0_linear_46_2513" x1="3439.08" y1="91.8554" x2="3508.29" y2="-2363.12" gradientUnits="userSpaceOnUse">
<stop stop-color="#222357"/>
<stop offset="1" stop-color="#254AA5"/>
</linearGradient>
</defs>
</svg>
